<?xml version="1.0" ?><!-- Uploaded to: SVG Repo, www.svgrepo.com, Generator: SVG Repo Mixer Tools -->
<svg fill="#000000" width="800px" height="800px" viewBox="0 0 24 24" id="Main" xmlns="http://www.w3.org/2000/svg"><title/><path d="M18.23,2H5.77A3.77,3.77,0,0,0,2,5.77V18.23A3.77,3.77,0,0,0,5.77,22H18.23A3.77,3.77,0,0,0,22,18.23V5.77A3.77,3.77,0,0,0,18.23,2ZM20,18.23A1.77,1.77,0,0,1,18.23,20H5.77A1.77,1.77,0,0,1,4,18.23V5.77A1.77,1.77,0,0,1,5.77,4H18.23A1.77,1.77,0,0,1,20,5.77Z"/><path d="M8,11H7a1,1,0,0,0,0,2H8a1,1,0,0,0,0-2Z"/><path d="M8,14H7a1,1,0,0,0,0,2H8a1,1,0,0,0,0-2Z"/><path d="M13,11H11a1,1,0,0,0,0,2h2a1,1,0,0,0,0-2Z"/><path d="M13,14H11a1,1,0,0,0,0,2h2a1,1,0,0,0,0-2Z"/><path d="M8,17H7a1,1,0,0,0,0,2H8a1,1,0,0,0,0-2Z"/><path d="M13,17H11a1,1,0,0,0,0,2h2a1,1,0,0,0,0-2Z"/><path d="M17,11H16a1,1,0,0,0,0,2h1a1,1,0,0,0,0-2Z"/><path d="M18,5H6A1,1,0,0,0,5,6V9a1,1,0,0,0,1,1H18a1,1,0,0,0,1-1V6A1,1,0,0,0,18,5ZM17,8H7V7H17Z"/><rect height="5" rx="1" width="3" x="15" y="14"/></svg>